<svg width="24" height="24" viewBox="0 0 24 24" fill="none" xmlns="http://www.w3.org/2000/svg">
<path d="M22 12C22 17.523 17.523 22 12 22C6.477 22 2 17.523 2 12C2 6.477 6.477 2 12 2V4C10.1188 4.00015 8.29775 4.66326 6.85692 5.87283C5.41608 7.0824 4.4476 8.76104 4.12164 10.6138C3.79567 12.4666 4.13307 14.375 5.07456 16.0037C6.01605 17.6324 7.5014 18.8772 9.26962 19.5194C11.0378 20.1616 12.9758 20.1601 14.7431 19.5152C16.5103 18.8703 17.9938 17.6233 18.9328 15.9931C19.8718 14.363 20.2063 12.4541 19.8775 10.6018C19.5487 8.74954 18.5777 7.07237 17.135 5.865L15 8V2H21L18.553 4.447C19.636 5.38479 20.5044 6.54475 21.0992 7.84804C21.694 9.15133 22.0012 10.5674 22 12Z" fill="white"/>
</svg>
