<svg width="9" height="14" viewBox="0 0 9 14" fill="none" xmlns="http://www.w3.org/2000/svg">
<path d="M0.793 0.635987C0.605529 0.823515 0.500214 1.07782 0.500214 1.34299C0.500214 1.60815 0.605529 1.86246 0.793 2.04999L5.743 6.99999L0.793 11.95C0.610842 12.1386 0.510047 12.3912 0.512326 12.6534C0.514604 12.9156 0.619773 13.1664 0.805182 13.3518C0.99059 13.5372 1.2414 13.6424 1.5036 13.6447C1.7658 13.6469 2.0184 13.5461 2.207 13.364L7.864 7.70699C8.05147 7.51946 8.15679 7.26515 8.15679 6.99999C8.15679 6.73482 8.05147 6.48052 7.864 6.29299L2.207 0.635987C2.01947 0.448516 1.76516 0.343201 1.5 0.343201C1.23484 0.343201 0.980528 0.448516 0.793 0.635987Z" fill="white"/>
</svg>
