<svg width="24" height="24" viewBox="0 0 24 24" fill="none" xmlns="http://www.w3.org/2000/svg">
<path d="M8.85002 16.825L12 14.925L15.15 16.85L14.325 13.25L17.1 10.85L13.45 10.525L12 7.12501L10.55 10.5L6.90002 10.825L9.67502 13.25L8.85002 16.825ZM12 17.275L7.85002 19.775C7.66669 19.8917 7.47502 19.9417 7.27502 19.925C7.07502 19.9083 6.90002 19.8417 6.75002 19.725C6.60002 19.6083 6.48336 19.4627 6.40002 19.288C6.31669 19.1133 6.30002 18.9173 6.35002 18.7L7.45002 13.975L3.77502 10.8C3.60836 10.65 3.50436 10.479 3.46302 10.287C3.42169 10.095 3.43402 9.90768 3.50002 9.72501C3.56602 9.54235 3.66602 9.39235 3.80002 9.27501C3.93402 9.15768 4.11736 9.08268 4.35002 9.05001L9.20002 8.62501L11.075 4.17501C11.1584 3.97501 11.2877 3.82501 11.463 3.72501C11.6384 3.62501 11.8174 3.57501 12 3.57501C12.1827 3.57501 12.3617 3.62501 12.537 3.72501C12.7124 3.82501 12.8417 3.97501 12.925 4.17501L14.8 8.62501L19.65 9.05001C19.8834 9.08335 20.0667 9.15835 20.2 9.27501C20.3334 9.39168 20.4334 9.54168 20.5 9.72501C20.5667 9.90835 20.5794 10.096 20.538 10.288C20.4967 10.48 20.3924 10.6507 20.225 10.8L16.55 13.975L17.65 18.7C17.7 18.9167 17.6834 19.1127 17.6 19.288C17.5167 19.4633 17.4 19.609 17.25 19.725C17.1 19.841 16.925 19.9077 16.725 19.925C16.525 19.9423 16.3334 19.8923 16.15 19.775L12 17.275Z" fill="white"/>
</svg>
