<svg width="800" height="800" viewBox="0 0 800 800" fill="none" xmlns="http://www.w3.org/2000/svg">
<g clip-path="url(#clip0_36_3)">
<path d="M745.482 319.245C736.644 310.142 722.239 310.23 713.403 319.333L334.73 711.173C332.961 712.941 331.196 714.707 329.34 716.387C272.606 768.348 184.765 766.671 130.061 711.173C73.6805 653.819 73.6805 560.588 130.061 503.321L512.445 114.927C521.283 106 521.283 91.4188 512.445 82.4952C503.607 73.4804 489.29 73.4804 480.543 82.4952L98.1564 470.805C24.1022 546.009 24.1022 668.403 98.1564 743.608C172.211 818.812 292.592 818.794 366.646 743.59L366.805 743.431L745.655 351.503C754.317 342.485 754.317 328.08 745.482 319.245Z" fill="white"/>
<path d="M449.806 302.825C458.645 311.751 472.961 311.751 481.708 302.825L741.345 39.1249C750.183 30.1983 750.183 15.7053 741.345 6.69342C732.507 -2.23309 718.19 -2.23309 709.355 6.69342L449.806 270.393C440.968 279.317 440.968 293.81 449.806 302.825Z" fill="white"/>
<path d="M621.055 255.794L479.925 399.045C471.175 408.06 471.175 422.553 479.925 431.565C488.764 440.491 503.08 440.491 511.915 431.565L653.045 288.226C661.883 279.211 661.883 264.718 653.045 255.794C644.207 246.78 629.89 246.78 621.055 255.794Z" fill="white"/>
<path d="M300.353 538.233C337.734 576.322 337.734 638.181 300.353 676.182C262.885 714.183 201.909 714.183 164.526 676.182C127.057 638.181 127.057 576.322 164.526 538.233C201.906 500.229 262.882 500.229 300.353 538.233ZM268.36 643.745C288.155 623.597 288.155 590.809 268.36 570.662C248.566 550.602 216.311 550.602 196.425 570.662C176.63 590.809 176.63 623.597 196.425 643.745C216.311 663.896 248.566 663.896 268.36 643.745Z" fill="white"/>
</g>
<defs>
<clipPath id="clip0_36_3">
<rect width="800" height="800" fill="white"/>
</clipPath>
</defs>
</svg>
