<svg width="9" height="14" viewBox="0 0 9 14" fill="none" xmlns="http://www.w3.org/2000/svg">
<path d="M8.207 0.635987C8.39447 0.823515 8.49979 1.07782 8.49979 1.34299C8.49979 1.60815 8.39447 1.86246 8.207 2.04999L3.257 6.99999L8.207 11.95C8.38916 12.1386 8.48995 12.3912 8.48768 12.6534C8.4854 12.9156 8.38023 13.1664 8.19482 13.3518C8.00941 13.5372 7.7586 13.6424 7.4964 13.6447C7.23421 13.6469 6.9816 13.5461 6.793 13.364L1.136 7.70699C0.948531 7.51946 0.843216 7.26515 0.843216 6.99999C0.843216 6.73482 0.948531 6.48052 1.136 6.29299L6.793 0.635987C6.98053 0.448516 7.23484 0.343201 7.5 0.343201C7.76517 0.343201 8.01947 0.448516 8.207 0.635987Z" fill="white"/>
</svg>
